{"title":"Arco di Trionfo, Arch of triumph, Arc de Triomphe","uid":6457329,"size":1091230340,"categoryP":"video","categoryS":"movies","magnet":"?xt=urn:btih:f6393b6eebe37ddbbb0eb0a9a73eba23d27a9fef&amp;dn=Arco+di+Trionfo%2C+Arch+of+triumph%2C+Arc+de+Triomphe&amp;tr=udp%3A%2F%2Ftracker.openbittorrent.com%3A80&amp;tr=udp%3A%2F%2Fopen.demonii.com%3A1337&amp;tr=udp%3A%2F%2Ftracker.coppersurfer.tk%3A6969&amp;tr=udp%3A%2F%2Fexodus.desync.com%3A6969","seeders":0,"leechers":1,"uploader":"Booo(-_-)mmm","files":1,"time":1307624804,"description":"General\nComplete name : 4rc0 d1 Tr10nf0.avi\nFormat : DivX\nFormat/Info : Hack of AVI\nFile size : 1.02 GiB\nDuration : 1h 48mn\nOverall bit rate : 1 338 Kbps\n\nVideo\nID : 0\nFormat : MPEG-4 Visual\nFormat settings, BVOP : Yes\nFormat settings, QPel : No\nFormat settings, GMC : No warppoints\nFormat settings, Matrix : Default (H.263)\nMuxing mode : Packed bitstream\nCodec ID : DX50\nCodec ID/Hint : DivX 5\nDuration : 1h 48mn\nBit rate : 1 201 Kbps\nWidth : 624 pixels\nHeight : 480 pixels\nDisplay aspect ratio : 1.300\nFrame rate : 25.000 fps\nResolution : 8 bits\nColorimetry : 4:2:0\nScan type : Progressive\nBits/(Pixel*Frame) : 0.160\nStream size : 934 MiB (90%)\nTitle : Video\nWriting library : DivX 6.2.5 (UTC 2006-06-16)\n\nAudio\nID : 1\nFormat : MPEG Audio\nFormat version : Version 1\nFormat profile : Layer 3\nCodec ID : 55\nCodec ID/Hint : MP3\nDuration : 1h 48mn\nBit rate mode : Constant\nBit rate : 128 Kbps\nChannel(s) : 2 channels\nSampling rate : 48.0 KHz\nStream size : 99.5 MiB (10%)\nAlignment : Split accross interleaves\nInterleave, duration : 40 ms (1.00 video frame)\nInterleave, preload duration : 50 ms\nTitle : Audio\n\n\nScreenshots:\n &lt;a href=&quot;\nhttp://imageshack.us/photo/my-images/716/arcotrionfo3.png/&quot; rel=&quot;nofollow&quot; target=&quot;_NEW&quot;&gt;\nhttp://imageshack.us/photo/my-images/716/arcotrionfo3.png/&lt;/a&gt; &lt;a href=&quot;\nhttp://imageshack.us/photo/my-images/43/arcotrionfo2.png/&quot; rel=&quot;nofollow&quot; target=&quot;_NEW&quot;&gt;\nhttp://imageshack.us/photo/my-images/43/arcotrionfo2.png/&lt;/a&gt; &lt;a href=&quot;\nhttp://imageshack.us/photo/my-images/97/arcotrionfo5.png/&quot; rel=&quot;nofollow&quot; target=&quot;_NEW&quot;&gt;\nhttp://imageshack.us/photo/my-images/97/arcotrionfo5.png/&lt;/a&gt; &lt;a href=&quot;\nhttp://imageshack.us/photo/my-images/192/arcotrionfo4.png/&quot; rel=&quot;nofollow&quot; target=&quot;_NEW&quot;&gt;\nhttp://imageshack.us/photo/my-images/192/arcotrionfo4.png/&lt;/a&gt; &lt;a href=&quot;\nhttp://img832.imageshack.us/img832/3029/arcotrionfo1.png&quot; rel=&quot;nofollow&quot; target=&quot;_NEW&quot;&gt;\nhttp://img832.imageshack.us/img832/3029/arcotrionfo1.png&lt;/a&gt;\n\n\n\nPlease seed!!! :)\n\n","torrent":{"xt":"urn:btih:f6393b6eebe37ddbbb0eb0a9a73eba23d27a9fef","amp;dn":"Arco+di+Trionfo%2C+Arch+of+triumph%2C+Arc+de+Triomphe","amp;tr":["udp%3A%2F%2Ftracker.openbittorrent.com%3A80","udp%3A%2F%2Fopen.demonii.com%3A1337","udp%3A%2F%2Ftracker.coppersurfer.tk%3A6969","udp%3A%2F%2Fexodus.desync.com%3A6969"],"infoHash":"f6393b6eebe37ddbbb0eb0a9a73eba23d27a9fef","infoHashBuffer":{"type":"Buffer","data":[246,57,59,110,235,227,125,219,187,14,176,169,167,62,186,35,210,122,159,239]},"announce":[],"urlList":[]}}